<svg width="200" height="200" viewBox="0 0 200 200" fill="none" xmlns="http://www.w3.org/2000/svg">
<path d="M174 32H26V168.43H174V32Z" fill="white"/>
<path d="M172.197 33.8044H27.8044V99.6608H172.197V33.8044Z" fill="#ED1C24"/>
<path fill-rule="evenodd" clip-rule="evenodd" d="M114.302 65.7777C115.568 65.8169 116.703 65.7595 117.708 65.7125L118.15 65.3574L120.074 63.872L120.173 63.7833L120.567 63.4778L121.812 62.5824L122.494 62.0786L122.676 61.8175L122.53 61.5982L122.22 61.4599H120.99L120.173 61.2954L119.497 60.6167L117.179 61.7157C114.98 62.6607 113.615 63.282 112.177 63.3108L109.738 63.423L78.9183 64.321L50.2022 65.2086L49.7558 65.8143H78.9183L114.302 65.7777ZM159.838 53.4089C158.757 52.4926 157.039 51.6677 156.065 51.0882C155.543 50.7592 156.151 49.1642 153.93 47.4725C152.071 46.0159 149.928 45.8122 146.025 46.089C143.321 46.3239 140.224 47.3316 137.191 48.783H137.173L134.056 48.287L132.719 48.1513L131.879 48.0834L131.591 48.1121C130.677 48.1217 129.775 48.3246 128.944 48.7073L128.305 49.206V49.2242L128.346 49.2843H129.602C130.04 49.2769 130.469 49.4091 130.826 49.6616C131.184 49.9141 131.452 50.2738 131.591 50.6887L131.693 51.2109L131.591 51.733L130.85 52.738C129.419 53.7222 130.046 53.2889 128.469 54.474C127.206 55.4034 126.195 56.3014 125.042 57.1838H125.498L126.911 57.3483L129.576 57.7451L131.591 56.8705C134.09 55.936 136.442 55.3329 138.509 55.1763C140.799 55.0014 142.634 54.957 144.229 55.3329C146.454 54.4312 148.828 53.9548 151.228 53.9284C153.971 53.7813 156.721 53.9098 159.438 54.3122L160.133 54.2521L159.838 53.4089ZM110.399 76.2722L110.84 75.9302L112.782 74.4317L113.257 74.0245L114.539 73.1264L115.2 72.6696L115.346 72.3929L115.255 72.1736L114.928 72.0378H113.699L112.192 71.1737L109.887 72.2728C107.705 73.2282 106.313 73.8391 104.891 73.8757L102.465 73.9801L78.9183 74.7032L42.9057 75.7735L42.4515 76.3609H107.008C108.29 76.3531 109.412 76.3348 110.399 76.2722ZM148.8 61.6661C148.26 61.3607 148.842 59.7317 146.644 58.0453C144.738 56.5964 142.634 56.3876 138.731 56.6643C136.27 56.9319 133.862 57.57 131.591 58.5569L129.879 59.3558L126.746 58.8337L125.441 58.677L124.577 58.6327C123.56 58.6248 122.556 58.8527 121.643 59.2983L121.021 59.7682L121.003 59.7839L121.06 59.8518L121.076 59.8753H122.285C123.46 59.8518 124.373 60.708 124.373 61.7444L123.53 63.3108C122.11 64.2897 122.747 63.8329 121.181 64.9972L120.162 65.8143C119.314 66.4565 118.526 67.0961 117.698 67.7383H118.22L119.63 67.8923L120.168 67.9915L122.256 68.323C125.488 66.8324 128.587 65.9396 131.205 65.7568L131.581 65.7099C133.698 65.5584 135.403 65.5584 136.92 65.8978C138.864 65.099 141.096 64.5925 143.924 64.4933C146.672 64.3844 149.425 64.5102 152.152 64.8693L152.813 64.8327L152.518 63.9817C151.466 63.0784 149.761 62.243 148.8 61.6661ZM141.407 72.2728C140.864 71.9647 141.47 70.3592 139.272 68.665C137.4 67.2605 135.327 67.0256 131.581 67.3075L131.351 67.3232C128.641 67.5085 125.524 68.4823 122.501 69.9546H122.483L120.162 69.5996L119.379 69.4717L118.043 69.3255L117.218 69.2654C116.194 69.2554 115.181 69.4805 114.257 69.9233L113.641 70.3827V70.4297L113.699 70.4924H114.928C116.079 70.4924 117.035 71.3278 117.035 72.4059L116.153 73.9279V73.9644C114.761 74.9094 115.385 74.463 113.803 75.643C110.409 78.1987 108.511 80.2402 102.499 82.8977C100.338 83.8323 98.9438 84.4641 97.5393 84.5006L95.1011 84.5946L78.9157 85.0802L35.5179 86.3854L35.0688 86.9859H99.6382C102.734 86.9859 104.922 86.8031 106.509 86.8031C108.551 86.8031 115.195 85.2629 120.186 82.3652L122.068 81.1487C125.274 78.8279 127.874 76.8334 131.604 75.8231C133.227 75.4092 134.891 75.178 136.564 75.134C139.314 75.0048 142.069 75.1306 144.796 75.5099L145.469 75.4655L145.161 74.604C144.099 73.6955 142.376 72.8549 141.407 72.2728Z" fill="white"/>
<path d="M172.197 101.517H27.8044V166.574H172.197V101.517Z" fill="#0E1141"/>
<path d="M51.2254 132.191V124.714H43.0048V132.191H38.3867V113.739H43.0048V121.14H51.2254V113.739H55.8461V132.191H51.2254Z" fill="white"/>
<path d="M58.7883 132.191V113.739H71.1336V117.133H63.409V120.882H70.7838V124.335H63.409V128.739H71.3529V132.191H58.7883Z" fill="white"/>
<path d="M73.6211 132.191V113.739H78.2313V128.619H86.1752V132.196L73.6211 132.191Z" fill="white"/>
<path d="M87.5906 132.191V113.739H92.2112V128.619H100.16V132.196L87.5906 132.191Z" fill="white"/>
<path d="M101.56 132.191V113.739H113.908V117.133H106.181V120.882H113.556V124.335H106.181V128.739H114.125V132.191H101.56Z" fill="white"/>
<path d="M131.276 132.191L120.962 120.602V132.191H116.393V113.739H120.445L130.326 124.745V113.739H134.894V132.191H131.276Z" fill="white"/>
<path d="M137.996 132.191V113.739H142.739V132.191H137.996Z" fill="white"/>
<path d="M161.936 130.65C159.793 131.883 157.361 132.526 154.888 132.514C151.929 132.514 149.544 131.65 147.732 129.922C145.828 128.12 144.876 125.806 144.876 122.977C144.876 120.113 145.821 117.808 147.709 116.062C149.623 114.297 152.161 113.415 155.321 113.415C157.557 113.427 159.761 113.944 161.769 114.927V119.247C159.751 117.943 157.697 117.291 155.608 117.289C153.751 117.289 152.292 117.792 151.231 118.798C150.169 119.804 149.629 121.196 149.609 122.975C149.609 124.667 150.114 126.032 151.124 127.071C152.133 128.11 153.51 128.632 155.256 128.637C157.454 128.637 159.679 127.866 161.931 126.324L161.936 130.65Z" fill="white"/>
<path d="M53.5912 144.961C53.603 144.971 53.6135 144.983 53.6225 144.995C53.6338 145.002 53.6435 145.011 53.6512 145.021C53.6339 144.999 53.6137 144.979 53.5912 144.961ZM53.6225 144.995C53.5546 144.925 53.4345 144.831 52.4947 144.256L49.6675 142.497C48.511 141.763 47.921 141.035 47.921 140.335C47.9145 140.122 47.9632 139.911 48.0625 139.722C48.1617 139.533 48.3081 139.373 48.4875 139.257C48.9922 138.925 49.5883 138.759 50.1922 138.782C51.5445 138.782 52.8028 139.354 54.0663 140.526C54.1573 140.61 54.2707 140.665 54.3928 140.686C54.5148 140.707 54.6403 140.692 54.7538 140.642C54.8674 140.593 54.9643 140.512 55.0327 140.409C55.1011 140.306 55.1381 140.185 55.1392 140.061V137.059C55.1381 136.955 55.1115 136.854 55.0619 136.763C55.0123 136.672 54.9411 136.594 54.8547 136.537C53.5507 135.632 52.004 135.141 50.4167 135.13C48.5893 135.13 47.0883 135.636 45.9318 136.636C44.7753 137.636 44.2036 138.986 44.2036 140.688C44.2036 142.322 44.9711 143.768 46.4905 144.993C46.5076 145.007 46.526 145.02 46.5453 145.032L48.4797 146.274C49.1715 146.718 49.785 147.128 50.375 147.533C51.5523 148.339 52.1501 149.162 52.1501 149.981C52.1432 150.188 52.0932 150.391 52.0033 150.577C51.9134 150.763 51.7856 150.928 51.628 151.062C51.12 151.493 50.4654 151.711 49.8006 151.67C48.1429 151.67 46.7228 150.887 45.4567 149.245C45.3756 149.14 45.2637 149.063 45.1368 149.025C45.0098 148.987 44.8741 148.989 44.7485 149.032C44.6229 149.074 44.5137 149.155 44.4362 149.262C44.3586 149.37 44.3166 149.499 44.3159 149.631V152.983C44.3144 153.085 44.3373 153.185 44.3828 153.276C44.4282 153.367 44.4948 153.446 44.5769 153.506C46.1689 154.71 48.1152 155.352 50.1113 155.333C51.6386 155.361 53.1146 154.782 54.2151 153.722C54.7526 153.2 55.1767 152.572 55.461 151.879C55.7454 151.185 55.8837 150.441 55.8676 149.692C55.8676 147.843 55.1105 146.261 53.6225 144.995Z" fill="white"/>
<path d="M69.0946 151.423H61.6807V146.985H68.5856C68.7541 146.985 68.9157 146.918 69.0351 146.799C69.1544 146.68 69.2219 146.519 69.2225 146.351V143.965C69.2219 143.796 69.1545 143.634 69.0352 143.515C68.9159 143.396 68.7543 143.328 68.5856 143.328H61.6807V139.036H68.8519C69.0208 139.036 69.1828 138.969 69.3023 138.849C69.4217 138.73 69.4888 138.568 69.4888 138.399V136.015C69.4888 135.846 69.4217 135.684 69.3023 135.565C69.1828 135.446 69.0208 135.378 68.8519 135.378H58.3914C58.2224 135.378 58.0604 135.446 57.941 135.565C57.8215 135.684 57.7544 135.846 57.7544 136.015V154.443C57.7544 154.612 57.8215 154.774 57.941 154.894C58.0604 155.013 58.2224 155.08 58.3914 155.08H69.0946C69.2636 155.08 69.4256 155.013 69.545 154.894C69.6645 154.774 69.7316 154.612 69.7316 154.443V152.06C69.7316 151.891 69.6645 151.729 69.545 151.609C69.4256 151.49 69.2636 151.423 69.0946 151.423Z" fill="white"/>
<path d="M82.1477 135.657C82.0981 135.545 82.0169 135.449 81.9141 135.382C81.8112 135.315 81.691 135.279 81.5681 135.279H79.7016C79.5769 135.279 79.455 135.316 79.3514 135.385C79.2477 135.454 79.167 135.553 79.1194 135.668L71.2016 154.203C71.1603 154.299 71.1434 154.404 71.1526 154.508C71.1617 154.612 71.1965 154.713 71.2538 154.801C71.3113 154.887 71.3888 154.958 71.4797 155.008C71.5706 155.058 71.6722 155.085 71.7759 155.088H74.4752C74.5998 155.088 74.7216 155.051 74.8255 154.982C74.9295 154.913 75.011 154.816 75.06 154.701L77.2215 149.647H84.2361L86.5255 154.712C86.5771 154.822 86.6594 154.916 86.7626 154.981C86.8658 155.047 86.9856 155.081 87.1077 155.08H89.8122C89.9184 155.079 90.0228 155.053 90.1162 155.002C90.2095 154.952 90.2889 154.879 90.3474 154.79C90.4049 154.701 90.439 154.599 90.4468 154.493C90.4545 154.387 90.4356 154.281 90.3918 154.184L82.1477 135.657ZM80.6153 141.557L82.5888 145.995H78.7826L80.6153 141.557Z" fill="white"/>
<path d="M115.649 135.658C115.59 135.573 115.512 135.503 115.422 135.455C115.331 135.406 115.23 135.38 115.127 135.378H112.516C112.389 135.379 112.264 135.417 112.159 135.49C112.053 135.562 111.972 135.664 111.926 135.783L107.488 147.008L102.951 135.783C102.903 135.666 102.821 135.566 102.716 135.496C102.611 135.425 102.488 135.387 102.361 135.386H99.8472C99.7198 135.386 99.5953 135.424 99.49 135.496C99.3847 135.568 99.3035 135.67 99.2572 135.788L94.7436 147.014L90.2508 135.788C90.2042 135.67 90.123 135.568 90.0177 135.496C89.9125 135.425 89.7882 135.386 89.6608 135.386H86.9928C86.8899 135.388 86.7889 135.414 86.6981 135.463C86.6074 135.512 86.5294 135.581 86.4707 135.666C86.4134 135.752 86.378 135.851 86.3675 135.954C86.3571 136.058 86.3719 136.162 86.4107 136.258L93.8664 154.861C93.9132 154.979 93.9945 155.081 94.0997 155.152C94.205 155.223 94.3293 155.261 94.4564 155.26H94.9785C95.1052 155.26 95.2289 155.223 95.334 155.152C95.4391 155.081 95.5208 154.981 95.5685 154.864L101.082 141.239L106.548 154.861C106.595 154.979 106.677 155.081 106.782 155.152C106.887 155.223 107.011 155.261 107.138 155.26H107.661C107.788 155.261 107.912 155.224 108.018 155.152C108.123 155.081 108.204 154.979 108.251 154.861L115.735 136.258C115.771 136.159 115.783 136.052 115.768 135.947C115.753 135.842 115.712 135.743 115.649 135.658Z" fill="white"/>
<path d="M122.535 135.657C122.486 135.545 122.404 135.449 122.302 135.382C122.199 135.315 122.078 135.279 121.956 135.279H120.089C119.964 135.279 119.842 135.316 119.739 135.385C119.635 135.454 119.554 135.553 119.507 135.668L111.589 154.203C111.547 154.299 111.531 154.404 111.54 154.509C111.55 154.613 111.585 154.713 111.644 154.801C111.701 154.887 111.778 154.959 111.869 155.009C111.96 155.059 112.062 155.086 112.166 155.088H114.868C114.992 155.087 115.113 155.05 115.217 154.981C115.32 154.913 115.401 154.815 115.45 154.701L117.612 149.647H124.618L126.905 154.712C126.956 154.824 127.038 154.919 127.141 154.985C127.244 155.052 127.364 155.088 127.487 155.088H130.189C130.295 155.088 130.4 155.061 130.493 155.011C130.586 154.96 130.665 154.887 130.723 154.798C130.781 154.709 130.816 154.607 130.824 154.501C130.833 154.395 130.814 154.289 130.771 154.192L122.535 135.657ZM121.003 141.557L122.976 145.995H119.178L121.003 141.557Z" fill="white"/>
<path d="M144.174 135.736C144.122 135.629 144.04 135.539 143.939 135.476C143.838 135.413 143.722 135.379 143.602 135.378H140.415C140.319 135.379 140.224 135.401 140.137 135.443C140.05 135.485 139.974 135.546 139.914 135.621L135.403 141.33L130.965 135.624C130.905 135.547 130.828 135.486 130.741 135.443C130.654 135.401 130.558 135.379 130.461 135.378H127.273C127.154 135.379 127.037 135.413 126.936 135.476C126.835 135.54 126.754 135.631 126.702 135.738C126.65 135.846 126.629 135.966 126.642 136.084C126.655 136.203 126.701 136.316 126.775 136.41L133.473 144.91V154.443C133.473 154.527 133.49 154.61 133.522 154.687C133.554 154.764 133.601 154.835 133.66 154.894C133.719 154.953 133.789 155 133.867 155.032C133.944 155.064 134.027 155.08 134.11 155.08H136.765C136.934 155.08 137.096 155.013 137.216 154.894C137.335 154.774 137.402 154.612 137.402 154.443V144.938L144.101 136.41C144.175 136.315 144.221 136.202 144.234 136.083C144.247 135.964 144.226 135.844 144.174 135.736Z" fill="white"/>
<path d="M153.233 144.997C153.168 144.937 153.118 144.888 152.089 144.256L149.761 142.812L149.265 142.502C148.108 141.768 147.521 141.037 147.521 140.34C147.514 140.127 147.562 139.915 147.662 139.726C147.761 139.537 147.908 139.377 148.087 139.262C148.591 138.928 149.188 138.762 149.792 138.787C151.142 138.787 152.403 139.359 153.666 140.531C153.757 140.615 153.87 140.671 153.992 140.692C154.114 140.713 154.24 140.698 154.353 140.648C154.467 140.599 154.563 140.518 154.632 140.414C154.7 140.311 154.736 140.19 154.736 140.066V137.064C154.736 136.961 154.71 136.859 154.661 136.768C154.611 136.677 154.541 136.599 154.455 136.542C153.147 135.635 151.595 135.144 150.004 135.135C148.176 135.135 146.675 135.641 145.519 136.641C144.362 137.641 143.788 138.991 143.788 140.693C143.788 142.327 144.558 143.773 146.069 144.995C146.088 145.01 146.108 145.024 146.13 145.037L148.067 146.279C148.704 146.684 149.338 147.109 149.967 147.54C151.139 148.344 151.734 149.166 151.734 149.986C151.728 150.193 151.678 150.396 151.588 150.582C151.498 150.768 151.37 150.933 151.212 151.067C150.705 151.498 150.05 151.716 149.385 151.675C147.727 151.675 146.304 150.892 145.038 149.25C144.958 149.145 144.846 149.067 144.719 149.029C144.592 148.99 144.456 148.992 144.331 149.035C144.205 149.077 144.096 149.158 144.019 149.266C143.941 149.374 143.9 149.504 143.9 149.636V152.988C143.899 153.09 143.922 153.19 143.967 153.281C144.013 153.372 144.079 153.451 144.161 153.51C145.753 154.715 147.699 155.358 149.696 155.338C150.454 155.353 151.209 155.218 151.915 154.94C152.622 154.663 153.266 154.249 153.812 153.722C154.35 153.199 154.773 152.572 155.058 151.878C155.342 151.185 155.481 150.44 155.465 149.691C155.472 148.791 155.275 147.901 154.888 147.088C154.502 146.275 153.936 145.56 153.233 144.997Z" fill="white"/>
</svg>
